<?xml version="1.0" standalone="no"?>
<!DOCTYPE svg PUBLIC "-//W3C//DTD SVG 20010904//EN"
 "http://www.w3.org/TR/2001/REC-SVG-20010904/DTD/svg10.dtd">
<svg version="1.0" xmlns="http://www.w3.org/2000/svg"
 width="512.000000pt" height="512.000000pt" viewBox="0 0 512.000000 512.000000"
 preserveAspectRatio="xMidYMid meet">
<metadata>
Created by potrace 1.11, written by Peter Selinger 2001-2013
</metadata>
<g transform="translate(0.000000,512.000000) scale(0.100000,-0.100000)"
fill="#000000" stroke="none">
<path d="M537 5095 l-28 -25 4 -172 c2 -95 8 -193 14 -218 7 -25 19 -90 28
-145 9 -55 27 -149 40 -210 13 -60 29 -137 36 -170 6 -33 27 -123 46 -200 19
-77 37 -151 39 -165 18 -103 31 -141 66 -192 21 -32 38 -61 38 -66 0 -4 26
-51 58 -103 31 -52 68 -116 82 -143 28 -55 85 -103 235 -202 28 -18 47 -42 63
-79 13 -29 39 -76 58 -106 20 -29 42 -68 50 -87 7 -19 29 -60 47 -91 l33 -56
-2 -168 c-1 -134 -5 -171 -17 -185 -14 -16 -67 -113 -152 -282 -18 -36 -54
-85 -79 -110 -25 -24 -46 -50 -46 -57 0 -7 -4 -13 -9 -13 -5 0 -48 -44 -96
-97 -48 -54 -105 -117 -126 -140 -43 -47 -41 -42 -63 -208 -9 -66 -21 -150
-26 -188 -20 -139 -17 -159 48 -247 31 -44 82 -116 112 -160 132 -192 186
-266 210 -285 13 -11 34 -31 45 -45 56 -68 283 -300 294 -300 5 0 31 -18 57
-40 27 -22 53 -40 57 -40 5 0 40 -23 78 -50 l69 -50 207 0 c164 1 231 5 318
21 61 11 128 22 150 25 22 3 50 10 62 16 17 8 30 8 48 0 14 -7 38 -12 52 -12
15 0 40 -4 57 -9 87 -27 232 -41 424 -41 202 0 203 0 245 26 23 15 44 30 47
34 3 3 38 29 79 56 41 27 88 59 105 71 17 11 87 81 156 154 69 73 144 151 168
173 23 22 56 60 72 85 17 25 57 84 90 131 32 47 84 121 114 165 30 44 68 97
85 119 38 48 38 54 6 283 -31 226 -45 294 -60 300 -7 2 -54 51 -105 109 -92
105 -106 120 -189 207 -23 25 -61 81 -83 124 -22 43 -43 80 -47 83 -4 3 -13
21 -21 40 -7 19 -35 72 -62 118 -49 82 -50 83 -39 133 14 64 14 134 0 198 -9
45 -8 54 9 78 11 16 45 73 75 129 75 137 81 148 88 154 3 3 12 22 20 44 10 27
28 47 64 71 27 19 60 43 72 54 12 12 26 21 30 21 22 1 89 65 117 112 65 106
156 265 156 271 0 3 17 32 39 64 27 40 42 78 51 123 18 99 41 202 50 230 16
47 93 411 110 520 24 157 44 256 51 264 5 6 9 80 9 166 l0 156 -31 27 c-30 26
-36 27 -134 27 -57 0 -106 -4 -109 -9 -3 -4 -27 -14 -53 -21 -28 -8 -63 -27
-83 -46 -20 -19 -40 -34 -45 -34 -6 0 -26 -15 -45 -33 -19 -18 -60 -52 -90
-75 -30 -22 -82 -62 -115 -87 -33 -25 -205 -189 -383 -363 -293 -287 -398
-401 -472 -511 -14 -20 -42 -55 -62 -77 -21 -21 -38 -44 -38 -50 0 -6 -24 -38
-53 -71 -29 -32 -65 -79 -82 -105 -27 -43 -32 -46 -84 -53 -75 -10 -294 -9
-357 1 -49 9 -54 12 -115 92 -35 46 -78 103 -95 128 -17 24 -41 54 -55 66 -13
13 -30 35 -37 49 -8 15 -24 37 -36 50 -12 13 -40 49 -63 79 -62 83 -675 688
-782 772 -52 40 -111 87 -132 103 -20 17 -64 50 -96 74 -32 25 -62 50 -66 58
-4 7 -34 20 -65 29 -31 9 -61 20 -67 25 -5 5 -54 9 -110 9 -92 -1 -102 -3
-128 -25z"/>
</g>
</svg>
